<?xml version="1.0" encoding="utf-8"?>
<!-- Generator: Adobe Illustrator 27.5.0, SVG Export Plug-In . SVG Version: 6.00 Build 0)  -->
<svg version="1.1" id="Layer_1" xmlns="http://www.w3.org/2000/svg" xmlns:xlink="http://www.w3.org/1999/xlink" x="0px" y="0px"
     viewBox="0 0 550 550" style="enable-background:new 0 0 550 550;" xml:space="preserve" width="20px" height="20px">
<path style="fill:#0A0A0A;" d="M395,515H155c-66,0-120-54-120-120V155C35,89,89,35,155,35h240c66,0,120,54,120,120v240
    C515,461,461,515,395,515z"/>
<g id="_x36_325_-_Man">
    <g>
        <circle style="fill:#FFFFFF;" cx="274.5" cy="177.5" r="79.7"/>
        <path style="fill:#FFFFFF;" d="M254.9,263.6v24.9c0,7.9,6.5,14.4,14.4,14.4h10.4c7.9,0,14.4-6.5,14.4-14.4v-24.9
            c-6.3,1.4-12.9,2.2-19.6,2.2S261.2,265,254.9,263.6z"/>
        <path style="fill:#FFFFFF;" d="M359.7,292.7h-57.5c-2,10.6-11.3,18.7-22.5,18.7h-10.4c-11.2,0-20.5-8.1-22.5-18.7h-56.4
            c-27.9,0-50.6,18.8-50.6,42v106c0,6.3,6.5,11.5,14.4,11.5h37.7v-79.7c0-2.3,1.9-4.3,4.3-4.3c2.4,0,4.3,1.9,4.3,4.3v79.7h148.1
            v-79.7c0-2.3,1.9-4.3,4.3-4.3s4.3,1.9,4.3,4.3v79.7H396c7.9,0,14.4-5.2,14.4-11.5v-106C410.2,311.6,387.5,292.7,359.7,292.7z"/>
    </g>
</g>
<g id="Layer_1_1_">
</g>
</svg>